<?xml version="1.0" encoding="UTF-8" standalone="no"?><!DOCTYPE svg PUBLIC "-//W3C//DTD SVG 1.1//EN" "http://www.w3.org/Graphics/SVG/1.1/DTD/svg11.dtd"><svg width="100%" height="100%" viewBox="0 0 1201 273" version="1.1" xmlns="http://www.w3.org/2000/svg" xmlns:xlink="http://www.w3.org/1999/xlink" xml:space="preserve" style="fill-rule:evenodd;clip-rule:evenodd;stroke-linejoin:round;stroke-miterlimit:1.41421;"><path id="SvgjsG1320" d="M386.167,67.261l24.208,0l0,-12.208c0,-2.958 -1.25,-4.417 -3.542,-4.417l-63.833,0c-0.875,4.667 -1.333,8.584 -1.333,11.875c0,3.167 1.333,4.75 4.041,4.75l20.167,0l0,65.542c0,2.333 1.458,3.417 4.375,3.417l15.917,0l0,-68.959Zm83.75,43.042c0,6.708 -3.792,10.167 -11.5,10.167l-5.167,0c-6.333,0 -8.792,-3.209 -8.792,-12.375l0,-7.459l13.209,0c8.208,0 12.25,3.167 12.25,9.667Zm-2.834,-34.333c0,5.708 -3.666,9.5 -11,9.5l-11.75,0l0,-19.167l11.75,0c7.334,0 11,3.792 11,9.667Zm-43.166,32.75c0,19.416 7.458,27.5 25.208,27.5l9.542,0c20.541,0 31.75,-9.417 31.75,-24.209c0,-9.916 -5.625,-17 -14.292,-20.041c6.958,-2.959 11.5,-10.042 11.5,-18.209c0,-14.083 -11.25,-23.125 -30.917,-23.125l-32.791,0l0,58.084Zm150.875,-47.667c-7.959,-7.958 -18.084,-11.875 -30.209,-11.875c-12.083,0 -22.25,3.917 -30.291,11.875c-7.959,7.792 -12,18.583 -12,32.375c0,13.833 4.041,24.583 12,32.542c8.041,7.791 18.208,11.708 30.291,11.708c12.125,0 22.25,-3.917 30.209,-11.708c7.958,-7.959 11.958,-18.709 11.958,-32.542c0,-13.792 -4,-24.583 -11.958,-32.375Zm-29.584,60c-6.375,0 -11.75,-2.542 -16,-7.833c-4.291,-5.25 -6.5,-12.084 -6.5,-20.75c0,-17.5 9.042,-26.667 21.167,-26.667c6.333,0 11.708,2.583 16,7.833c4.292,5.25 6.458,12.084 6.458,20.792c0,17.458 -9.041,26.625 -21.125,26.625Zm56.959,10.542c4.291,3.041 10.625,5.583 14.083,5.583c2.542,0 4.375,-0.958 5.5,-2.792l29.208,-49.041l0,47.458c0,2.333 1.459,3.417 4.375,3.417l15.917,0l0,-80.792c-4.292,-3.083 -10.625,-5.75 -14.083,-5.75c-2.542,0 -4.375,0.958 -5.5,2.917l-29.209,49.041l0,-47.708c0,-2.792 -1.833,-4.25 -5.5,-4.25c-5.75,0 -10.625,0.583 -14.791,1.708l0,80.209Zm28.875,-106c-0.375,-1.834 -1.625,-2.834 -3.792,-2.834c-3.458,0 -6.5,1 -9.167,2.959c1.584,11.708 9.042,17.208 18.792,17.208c10.792,0 17.625,-6.583 18.583,-17.208c0.125,-1.834 -0.958,-2.834 -3.541,-2.834l-8.917,0c-0.25,6.5 -2.208,9.667 -6,9.667c-3.167,0 -5.125,-2.333 -5.958,-6.958Zm141.791,84.708c0,6.708 -3.791,10.167 -11.5,10.167l-5.125,0c-6.375,0 -8.791,-3.209 -8.791,-12.375l0,-7.459l13.208,0c8.167,0 12.208,3.167 12.208,9.667Zm-2.833,-34.333c0,5.708 -3.667,9.5 -11,9.5l-11.708,0l0,-19.167l11.708,0c7.333,0 11,3.792 11,9.667Zm-43.125,32.75c0,19.416 7.458,27.5 25.167,27.5l9.541,0c20.542,0 31.792,-9.417 31.792,-24.209c0,-9.916 -5.625,-17 -14.292,-20.041c6.959,-2.959 11.459,-10.042 11.459,-18.209c0,-14.083 -11.25,-23.125 -30.917,-23.125l-32.75,0l0,58.084Zm101.833,-7.959c13.084,0 19.542,3.667 19.542,10.875c0,6.25 -5.625,9.417 -16.875,9.417c-8.417,0 -15.875,-1.708 -22.375,-5c-2.042,2.792 -3.042,5.875 -3.042,9.042c0,2.916 2.834,5.75 8.459,8.541c5.583,2.709 12.208,4.042 19.916,4.042c21.625,0 34.209,-10.5 34.209,-25.792c0,-9.166 -5.75,-16.25 -15.042,-19.541c7.458,-3.084 12.75,-10.292 12.75,-18.959c0,-7.083 -2.833,-12.833 -8.333,-17.375c-5.5,-4.5 -12.459,-6.833 -21.167,-6.833c-14.792,0 -25.167,5.75 -30.417,14.417c-0.875,1.333 -1.208,2.833 -1.208,4.416c0,1.834 1.083,3.417 3.167,4.75c3.541,2.334 8.166,3.542 14.041,3.917c2.084,-7.208 6.5,-10.75 13.209,-10.75c6.375,0 10.291,3.417 10.291,8.792c0,6.875 -5.625,10.291 -16.75,10.291l-4.541,0c-0.834,3.542 -1.209,7.209 -1.209,11c0,3.167 1.334,4.75 3.917,4.75l1.458,0Zm110.625,-45.708c0,-2.958 -1.208,-4.417 -3.541,-4.417l-51.834,0l0,82.167c0,2.333 1.459,3.417 4.417,3.417l15.875,0l0,-68.959l35.083,0l0,-12.208Zm30.459,-4.417c0,21.667 -1.125,39.75 -3.459,54.042c-1.916,12.708 -4.875,16.375 -10.625,16.375c-3.166,0 -6.083,-0.583 -8.916,-1.708c-1.834,2.833 -2.667,5.875 -2.667,9.166c0,2.334 1.833,4.417 5.5,6.375c3.667,1.834 7.667,2.792 11.958,2.792c13.834,0 22.125,-9.292 25.084,-30.417c1.833,-12.625 2.916,-25.916 3.291,-40l20.042,0l0,65.542c0,2.333 1.458,3.417 4.417,3.417l16,0l0,-82.042c0,-2.292 -1.459,-3.542 -4.417,-3.542l-56.208,0Zm94.25,56.625c-3.084,5.5 -6.125,9.417 -8.917,11.709c-2.083,1.833 -4.542,2.708 -7.125,2.708l-2.292,0c-0.875,2.333 -1.375,4.75 -1.375,7.583c0,4.042 5.042,8.417 12.375,8.417c4.75,0 9.167,-1.833 12.959,-5.5c5.5,-5.25 9.75,-12.208 13.083,-20.667c3.792,-0.333 6.583,-0.833 8.167,-1.458l0,22.75c0,2.333 1.458,3.417 4.416,3.417l15.875,0l0,-81.417c0,-2.833 -1.208,-4.167 -3.791,-4.167l-24.209,0c-21.625,0 -35.083,11.5 -35.083,30.584c0,11.833 6.125,21.125 15.917,26.041Zm4.875,-26.041c0,-9.167 5.75,-13.959 15.541,-13.959l6.459,0l0,26.917c-1.584,0.375 -3.792,0.583 -6.584,0.583c-9.416,0 -15.416,-4.625 -15.416,-13.541Zm101.958,38.5l-19.292,0c4,-16 6.584,-33.5 7.667,-52.459l11.625,0l0,52.459Zm29.833,3.416c0,-2.333 -1.458,-3.541 -4.416,-3.541l-5.125,0l0,-65.417c0,-2.292 -1.459,-3.542 -4.417,-3.542l-46.542,0c-0.875,27.375 -3.791,50.375 -8.958,68.959l-7.208,0l0,31.041c0,2.334 1.5,3.542 4.416,3.542l15.875,0l0,-17.958l35.959,0l0,14.416c0,2.334 1.458,3.542 4.416,3.542l16,0l0,-31.042Z" style="fill:#f36b6d;fill-rule:nonzero;"/><path id="SvgjsG1321" d="M365.616,166.678c-12.257,0 -20.158,8.25 -20.158,21.083c0,11.959 6.705,22.042 20.201,22.042c13.41,0 20.2,-9.833 20.2,-21.917c0,-12.25 -7.175,-21.208 -20.243,-21.208Zm0,4.75c8.926,0 14.691,6.583 14.691,16.75c0,10.208 -5.765,16.917 -14.563,16.917c-8.968,0 -14.734,-6.625 -14.734,-16.917c0,-8.792 4.655,-16.75 14.606,-16.75Zm49.754,11.875l0,-4.333l-26.948,0l0,4.333l10.933,0l0,25.5l5.039,0l0,-25.5l10.976,0Zm2.306,4.292l5.082,0c0.427,-4.042 4.143,-5.5 7.773,-5.5c4.142,0 6.448,2.083 6.448,4.291c0,3.5 -2.904,4.834 -6.448,4.834l-3.374,0l0,4l4.185,0c4.698,0 6.534,1.833 6.534,4.875c0,3.041 -2.733,5.625 -7.516,5.625c-4.527,0 -7.816,-1.959 -8.115,-6.209l-5.082,0c0.342,6.459 5.253,10.209 13.24,10.209c6.448,0 12.683,-3.292 12.683,-9.75c0,-4.625 -3.074,-6.875 -5.936,-7.417l0,-0.125c2.52,-0.5 4.954,-2.875 4.954,-6.292c0,-5.541 -5.253,-8.041 -11.531,-8.041c-6.149,0 -12.427,2.166 -12.897,9.5Zm60.473,-8.625l0,29.833l5.039,0l0,-29.833l-5.039,0Zm-4.826,20.541c0,-5.666 -3.972,-9.125 -9.951,-9.125l-9.481,0l0,-11.416l-5.039,0l0,29.833l14.734,0c5.979,0 9.737,-3.708 9.737,-9.292Zm-11.574,-4.916c4.228,0 6.321,1.708 6.321,4.916c0,3.167 -2.178,4.959 -6.321,4.959l-7.858,0l0,-9.875l7.858,0Zm28.87,14.208l16.613,0c5.467,0 9.31,-3.708 9.31,-8.792c0,-4 -2.263,-6.625 -5.808,-7.333l0,-0.042c2.862,-1.291 4.527,-3.25 4.527,-6.416c0,-6.084 -5.167,-7.25 -10.506,-7.25l-14.136,0l0,29.833Zm13.624,-17.792l-8.712,0l0,-7.833l8.712,0c4.441,0 5.808,1.333 5.808,3.833c0,2.542 -1.495,4 -5.808,4Zm-8.712,4.167l9.865,0c4.143,0 5.936,1.708 5.936,4.417c0,2.833 -1.836,5 -5.039,5l-10.762,0l0,-9.417Zm56.159,-16.208l0,29.833l5.04,0l0,-29.833l-5.04,0Zm-4.868,20.541c0,-5.666 -3.972,-9.125 -9.951,-9.125l-9.481,0l0,-11.416l-5.039,0l0,29.833l14.776,0c5.979,0 9.695,-3.708 9.695,-9.292Zm-11.531,-4.916c4.185,0 6.32,1.708 6.32,4.916c0,3.167 -2.178,4.959 -6.32,4.959l-7.901,0l0,-9.875l7.901,0Zm58.807,-16.5c-9.224,0 -14.99,6.083 -14.99,15.916c0,9.834 5.552,15.709 14.948,15.709c9.267,0 14.691,-5.875 14.691,-16c0,-9.875 -5.424,-15.625 -14.649,-15.625Zm-0.128,4.125c5.937,0 9.609,4.5 9.609,11.625c0,7.333 -3.544,11.708 -9.481,11.708c-6.149,0 -9.78,-4.333 -9.78,-11.667c0,-7.125 3.716,-11.666 9.652,-11.666Zm42.237,26.583l0,-25.5l15.29,0l0,25.5l5.039,0l0,-29.833l-25.368,0l0,29.833l5.039,0Zm41.298,-30.708c-9.225,0 -14.99,6.083 -14.99,15.916c0,9.834 5.552,15.709 14.947,15.709c9.268,0 14.692,-5.875 14.692,-16c0,-9.875 -5.424,-15.625 -14.649,-15.625Zm-0.128,4.125c5.936,0 9.609,4.5 9.609,11.625c0,7.333 -3.545,11.708 -9.481,11.708c-6.15,0 -9.78,-4.333 -9.78,-11.667c0,-7.125 3.758,-11.666 9.652,-11.666Zm25.795,26.583l0,-25.5l15.289,0l0,25.5l4.997,0l0,-29.833l-25.325,0l0,29.833l5.039,0Zm53.17,-29.833l-5.253,0l-8.584,23.75l-9.054,-23.75l-5.722,0l12.171,29.666l-2.392,5.417c-0.597,1.417 -1.879,2.5 -3.544,2.5c-0.897,0 -1.666,-0.167 -3.246,-0.625l0,4.375c1.239,0.292 2.434,0.542 3.716,0.542c5.466,0 7.174,-4 8.84,-8.209l13.068,-33.666Zm29.81,0l-20.799,0l-0.512,18.041c-0.171,6.459 -2.434,8.209 -4.442,8.209c-0.683,0 -2.007,-0.042 -2.69,-0.417l0,4c0.683,0.292 2.135,0.625 3.63,0.625c4.271,0 8.157,-3.167 8.456,-12.917l0.427,-13.208l10.89,0l0,25.5l5.04,0l0,-29.833Zm31.646,29.833l0,-29.833l-15.546,0c-5.893,0 -9.566,3.208 -9.566,8.791c0,4.917 3.246,8.042 7.559,8.667l-10.549,12.375l6.705,0l9.652,-12.208l6.705,0l0,12.208l5.04,0Zm-5.04,-25.5l0,8.958l-8.883,0c-4.228,0 -6.064,-1.416 -6.064,-4.5c0,-3 1.921,-4.458 6.064,-4.458l8.883,0Zm17.425,-4.333l-4.741,0l0,41.333l5.04,0l0,-15.667c2.605,3.459 5.722,4.917 10.249,4.917c8.328,0 13.666,-6.167 13.666,-15.833c0,-9.667 -5.381,-15.667 -13.922,-15.667c-4.484,0 -7.944,1.458 -10.292,5.125l0,-4.208Zm9.523,3.208c5.936,0 9.481,4.375 9.481,11.583c0,7.167 -3.545,11.625 -9.31,11.625c-5.894,0 -9.609,-4.375 -9.609,-11.625c0,-7.208 3.587,-11.583 9.438,-11.583Zm25.881,26.625l0,-13.625l15.289,0l0,13.625l5.039,0l0,-29.833l-5.039,0l0,11.875l-15.289,0l0,-11.875l-5.04,0l0,29.833l5.04,0Zm57.056,-29.833l0,29.833l5.04,0l0,-29.833l-5.04,0Zm-4.868,20.541c0,-5.666 -3.972,-9.125 -9.951,-9.125l-9.481,0l0,-11.416l-5.04,0l0,29.833l14.777,0c5.979,0 9.695,-3.708 9.695,-9.292Zm-11.531,-4.916c4.185,0 6.32,1.708 6.32,4.916c0,3.167 -2.178,4.959 -6.32,4.959l-7.901,0l0,-9.875l7.901,0Zm54.067,-15.625l-6.107,0l-7.56,10.25l-7.431,-10.25l-6.363,0l10.591,14.125l-11.488,15.708l6.107,0l8.456,-12.25l8.584,12.25l6.449,0l-11.872,-16.083l10.634,-13.75Zm45.44,4.333l0,-4.333l-26.948,0l0,4.333l10.976,0l0,25.5l5.039,0l0,-25.5l10.933,0Zm17.424,-5.208c-9.224,0 -14.99,6.083 -14.99,15.916c0,9.834 5.552,15.709 14.948,15.709c9.267,0 14.691,-5.875 14.691,-16c0,-9.875 -5.424,-15.625 -14.649,-15.625Zm-0.128,4.125c5.937,0 9.609,4.5 9.609,11.625c0,7.333 -3.544,11.708 -9.481,11.708c-6.149,0 -9.779,-4.333 -9.779,-11.667c0,-7.125 3.758,-11.666 9.651,-11.666Zm20.628,26.583l16.655,0c5.424,0 9.311,-3.708 9.311,-8.792c0,-4 -2.264,-6.625 -5.809,-7.333l0,-0.042c2.819,-1.291 4.485,-3.25 4.485,-6.416c0,-6.084 -5.168,-7.25 -10.464,-7.25l-14.178,0l0,29.833Zm13.623,-17.792l-8.712,0l0,-7.833l8.712,0c4.442,0 5.808,1.333 5.808,3.833c0,2.542 -1.494,4 -5.808,4Zm-8.712,4.167l9.908,0c4.143,0 5.894,1.708 5.894,4.417c0,2.833 -1.837,5 -4.997,5l-10.805,0l0,-9.417Zm54.11,9.708c-0.555,0.084 -0.769,0.167 -1.281,0.167c-1.538,0 -2.05,-0.75 -2.05,-2.958c0,-4.459 0.213,-8.834 0.213,-13.292c0,-2.667 0.086,-5.708 -2.05,-7.75c-2.007,-1.833 -5.509,-2.875 -9.609,-2.875c-7.858,0 -12.598,3.75 -12.769,10.125l4.911,0c0.47,-4.417 2.904,-6.083 7.559,-6.083c4.527,0 6.961,1.75 6.961,4.916c0,4.042 -2.519,3.875 -9.779,4.75c-7.261,0.834 -10.848,3.959 -10.848,9.292c0,5.208 3.716,8.417 9.78,8.417c4.74,0 8.029,-1.417 11.061,-4.709c0.043,2.834 1.623,4.375 4.442,4.375c1.11,0 2.391,-0.166 3.459,-0.583l0,-3.792Zm-8.115,-11.583l0,5.458c0,3.792 -4.569,6.959 -9.31,6.959c-3.801,0 -6.107,-1.875 -6.107,-4.959c0,-4.791 4.954,-5.208 8.627,-5.666c2.264,-0.292 4.869,-0.375 6.79,-1.792Zm17.596,-14.333l-4.741,0l0,41.333l4.997,0l0,-15.667c2.648,3.459 5.765,4.917 10.25,4.917c8.37,0 13.709,-6.167 13.709,-15.833c0,-9.667 -5.381,-15.667 -13.923,-15.667c-4.527,0 -7.943,1.458 -10.292,5.125l0,-4.208Zm9.523,3.208c5.937,0 9.481,4.375 9.481,11.583c0,7.167 -3.544,11.625 -9.31,11.625c-5.936,0 -9.609,-4.375 -9.609,-11.625c0,-7.208 3.588,-11.583 9.438,-11.583Zm47.918,22.708c-0.513,0.084 -0.769,0.167 -1.239,0.167c-1.537,0 -2.093,-0.75 -2.093,-2.958c0,-4.459 0.257,-8.834 0.257,-13.292c0,-2.667 0.042,-5.708 -2.093,-7.75c-2.007,-1.833 -5.509,-2.875 -9.566,-2.875c-7.901,0 -12.642,3.75 -12.812,10.125l4.911,0c0.47,-4.417 2.904,-6.083 7.602,-6.083c4.484,0 6.918,1.75 6.918,4.916c0,4.042 -2.477,3.875 -9.78,4.75c-7.217,0.834 -10.847,3.959 -10.847,9.292c0,5.208 3.758,8.417 9.78,8.417c4.74,0 8.071,-1.417 11.104,-4.709c0.042,2.834 1.58,4.375 4.441,4.375c1.11,0 2.349,-0.166 3.417,-0.583l0,-3.792Zm-8.115,-11.583l0,5.458c0,3.792 -4.569,6.959 -9.31,6.959c-3.801,0 -6.107,-1.875 -6.107,-4.959c0,-4.791 4.997,-5.208 8.67,-5.666c2.263,-0.292 4.868,-0.375 6.747,-1.792Zm37.967,-14.333l-6.107,0l-7.559,10.25l-7.431,-10.25l-6.364,0l10.592,14.125l-11.489,15.708l6.107,0l8.456,-12.25l8.585,12.25l6.448,0l-11.872,-16.083l10.634,-13.75Z" style="fill:#f36b6d;fill-rule:nonzero;"/><path id="SvgjsG1322" d="M0,62.838c0,-19.294 15.551,-34.845 34.845,-34.845l119.222,0c1.728,0 2.88,1.152 2.88,2.88c0,1.728 -1.152,2.88 -2.88,2.88l-119.222,0c-16.127,0 -29.085,12.959 -29.085,29.085l0,118.646c0,16.127 12.958,29.086 29.085,29.086l25.054,0c1.728,0 2.88,1.152 2.88,2.88l0,49.82l54.139,-51.836c0.576,-0.576 1.152,-0.864 2.016,-0.864l110.007,0c11.807,0 22.75,-7.487 27.07,-18.43c0.576,-1.44 2.303,-2.304 3.743,-1.728c1.44,0.576 2.304,2.304 1.728,3.743c-5.183,13.247 -18.142,22.175 -32.541,22.175l-108.855,0l-58.171,55.579c-0.576,0.576 -1.152,0.864 -2.016,0.864c-0.288,0 -0.864,0 -1.152,-0.288c-1.152,-0.576 -1.728,-1.44 -1.728,-2.592l0,-53.563l-22.174,0c-19.294,0 -34.845,-15.551 -34.845,-34.846l0,-118.646l0,0Zm278.761,22.75l-10.079,63.931c-1.728,14.687 -12.095,23.326 -28.51,23.326l-77.466,0c-8.639,0 -15.838,-4.607 -20.158,-11.231c-2.592,4.032 -6.911,6.624 -11.807,6.624l-16.127,0c-7.775,0 -14.11,-6.336 -14.11,-14.111l0,-72.57c0,-7.776 6.335,-14.111 14.11,-14.111l16.127,0c7.775,0 14.111,6.335 14.111,14.111l0,67.386c0,9.791 8.063,17.855 17.854,17.855l77.754,0c9.215,0 21.022,-3.168 22.75,-18.143l10.079,-63.93c0.576,-3.168 0.288,-6.336 -1.152,-8.928c-2.879,-6.623 -9.215,-10.943 -16.414,-10.943l-43.773,0c-1.728,0 -2.879,-1.152 -2.879,-2.88l0,-33.117c0,-9.503 -2.592,-16.126 -7.488,-19.582c-6.047,-4.32 -14.111,-3.456 -17.854,-2.592l0,29.374c0,30.525 -35.133,40.892 -35.709,40.892c-1.44,0.576 -3.168,-0.576 -3.456,-2.016c-0.288,-1.44 0.576,-3.167 2.016,-3.455c1.152,-0.288 31.389,-9.216 31.389,-35.421l0,-31.678c0,-1.152 0.864,-2.304 2.016,-2.88c0.576,-0.287 14.687,-4.607 25.054,2.88c6.335,4.608 9.791,12.959 9.791,24.19l0,30.238l40.893,0c9.503,0 18.142,5.759 21.886,14.399c1.44,4.031 2.016,8.063 1.152,12.382Zm-139.669,-4.031c0,-4.608 -3.743,-8.351 -8.351,-8.351l-16.127,0c-4.607,0 -8.351,3.743 -8.351,8.351l0,72.282c0,4.607 3.744,8.351 8.351,8.351l16.127,0c4.608,0 8.351,-3.744 8.351,-8.351l0,-72.282Z" style="fill:#f36b6d;fill-rule:nonzero;"/></svg>
